<mxfile host="app.diagrams.net" agent="Mozilla/5.0 (Windows NT 10.0; Win64; x64) AppleWebKit/537.36 (KHTML, like Gecko) Chrome/131.0.0.0 Safari/537.36" version="26.0.4">
  <diagram name="Pàgina-1" id="MYeRW0rlXTviFTtAUYIF">
    <mxGraphModel dx="2074" dy="1132" grid="1" gridSize="10" guides="1" tooltips="1" connect="1" arrows="1" fold="1" page="1" pageScale="1" pageWidth="827" pageHeight="1169" math="0" shadow="0">
      <root>
        <mxCell id="0" />
        <mxCell id="1" parent="0" />
        <mxCell id="KkMUz14_b6mUWs1IsBhs-14" style="edgeStyle=orthogonalEdgeStyle;rounded=0;orthogonalLoop=1;jettySize=auto;html=1;entryX=0.5;entryY=0;entryDx=0;entryDy=0;exitX=0.5;exitY=1;exitDx=0;exitDy=0;" edge="1" parent="1" source="KkMUz14_b6mUWs1IsBhs-1" target="KkMUz14_b6mUWs1IsBhs-5">
          <mxGeometry relative="1" as="geometry">
            <mxPoint x="310" y="100" as="sourcePoint" />
            <Array as="points">
              <mxPoint x="420" y="145" />
              <mxPoint x="60" y="145" />
            </Array>
          </mxGeometry>
        </mxCell>
        <mxCell id="KkMUz14_b6mUWs1IsBhs-15" style="edgeStyle=orthogonalEdgeStyle;rounded=0;orthogonalLoop=1;jettySize=auto;html=1;entryX=0.5;entryY=0;entryDx=0;entryDy=0;exitX=0.5;exitY=1;exitDx=0;exitDy=0;" edge="1" parent="1" source="KkMUz14_b6mUWs1IsBhs-1" target="KkMUz14_b6mUWs1IsBhs-2">
          <mxGeometry relative="1" as="geometry">
            <mxPoint x="400" y="120" as="sourcePoint" />
          </mxGeometry>
        </mxCell>
        <mxCell id="KkMUz14_b6mUWs1IsBhs-16" style="edgeStyle=orthogonalEdgeStyle;rounded=0;orthogonalLoop=1;jettySize=auto;html=1;entryX=0.5;entryY=0;entryDx=0;entryDy=0;" edge="1" parent="1" target="KkMUz14_b6mUWs1IsBhs-3">
          <mxGeometry relative="1" as="geometry">
            <mxPoint x="420" y="145" as="sourcePoint" />
          </mxGeometry>
        </mxCell>
        <mxCell id="KkMUz14_b6mUWs1IsBhs-17" style="edgeStyle=orthogonalEdgeStyle;rounded=0;orthogonalLoop=1;jettySize=auto;html=1;exitX=0.5;exitY=1;exitDx=0;exitDy=0;entryX=0.5;entryY=0;entryDx=0;entryDy=0;" edge="1" parent="1" source="KkMUz14_b6mUWs1IsBhs-1" target="KkMUz14_b6mUWs1IsBhs-4">
          <mxGeometry relative="1" as="geometry" />
        </mxCell>
        <mxCell id="KkMUz14_b6mUWs1IsBhs-1" value="Main" style="rounded=0;whiteSpace=wrap;html=1;" vertex="1" parent="1">
          <mxGeometry x="360" y="40" width="120" height="60" as="geometry" />
        </mxCell>
        <mxCell id="KkMUz14_b6mUWs1IsBhs-19" style="edgeStyle=orthogonalEdgeStyle;rounded=0;orthogonalLoop=1;jettySize=auto;html=1;exitX=0.5;exitY=1;exitDx=0;exitDy=0;entryX=0.5;entryY=0;entryDx=0;entryDy=0;" edge="1" parent="1" source="KkMUz14_b6mUWs1IsBhs-2" target="KkMUz14_b6mUWs1IsBhs-6">
          <mxGeometry relative="1" as="geometry" />
        </mxCell>
        <mxCell id="KkMUz14_b6mUWs1IsBhs-2" value="Creacio bola" style="rounded=0;whiteSpace=wrap;html=1;" vertex="1" parent="1">
          <mxGeometry x="240" y="190" width="120" height="60" as="geometry" />
        </mxCell>
        <mxCell id="KkMUz14_b6mUWs1IsBhs-21" style="edgeStyle=orthogonalEdgeStyle;rounded=0;orthogonalLoop=1;jettySize=auto;html=1;exitX=0.5;exitY=1;exitDx=0;exitDy=0;" edge="1" parent="1" source="KkMUz14_b6mUWs1IsBhs-3" target="KkMUz14_b6mUWs1IsBhs-8">
          <mxGeometry relative="1" as="geometry" />
        </mxCell>
        <mxCell id="KkMUz14_b6mUWs1IsBhs-3" value="Creacio dels blocs" style="rounded=0;whiteSpace=wrap;html=1;" vertex="1" parent="1">
          <mxGeometry x="480" y="190" width="120" height="60" as="geometry" />
        </mxCell>
        <mxCell id="KkMUz14_b6mUWs1IsBhs-23" style="edgeStyle=orthogonalEdgeStyle;rounded=0;orthogonalLoop=1;jettySize=auto;html=1;exitX=0.5;exitY=1;exitDx=0;exitDy=0;entryX=0.5;entryY=0;entryDx=0;entryDy=0;" edge="1" parent="1" source="KkMUz14_b6mUWs1IsBhs-4" target="KkMUz14_b6mUWs1IsBhs-10">
          <mxGeometry relative="1" as="geometry" />
        </mxCell>
        <mxCell id="KkMUz14_b6mUWs1IsBhs-4" value="Raqueta" style="rounded=0;whiteSpace=wrap;html=1;" vertex="1" parent="1">
          <mxGeometry x="707" y="190" width="120" height="60" as="geometry" />
        </mxCell>
        <mxCell id="KkMUz14_b6mUWs1IsBhs-18" style="edgeStyle=orthogonalEdgeStyle;rounded=0;orthogonalLoop=1;jettySize=auto;html=1;exitX=0.5;exitY=1;exitDx=0;exitDy=0;entryX=0.5;entryY=0;entryDx=0;entryDy=0;" edge="1" parent="1" source="KkMUz14_b6mUWs1IsBhs-5" target="KkMUz14_b6mUWs1IsBhs-12">
          <mxGeometry relative="1" as="geometry" />
        </mxCell>
        <mxCell id="KkMUz14_b6mUWs1IsBhs-5" value="Creacio finestra" style="rounded=0;whiteSpace=wrap;html=1;" vertex="1" parent="1">
          <mxGeometry y="190" width="120" height="60" as="geometry" />
        </mxCell>
        <mxCell id="KkMUz14_b6mUWs1IsBhs-20" style="edgeStyle=orthogonalEdgeStyle;rounded=0;orthogonalLoop=1;jettySize=auto;html=1;exitX=0.5;exitY=1;exitDx=0;exitDy=0;entryX=0.5;entryY=0;entryDx=0;entryDy=0;" edge="1" parent="1" source="KkMUz14_b6mUWs1IsBhs-6" target="KkMUz14_b6mUWs1IsBhs-7">
          <mxGeometry relative="1" as="geometry" />
        </mxCell>
        <mxCell id="KkMUz14_b6mUWs1IsBhs-6" value="Creacio Moviment" style="rounded=0;whiteSpace=wrap;html=1;" vertex="1" parent="1">
          <mxGeometry x="240" y="330" width="120" height="60" as="geometry" />
        </mxCell>
        <mxCell id="KkMUz14_b6mUWs1IsBhs-7" value="Deteccio de colisio" style="rounded=0;whiteSpace=wrap;html=1;" vertex="1" parent="1">
          <mxGeometry x="240" y="450" width="120" height="60" as="geometry" />
        </mxCell>
        <mxCell id="KkMUz14_b6mUWs1IsBhs-22" style="edgeStyle=orthogonalEdgeStyle;rounded=0;orthogonalLoop=1;jettySize=auto;html=1;exitX=0.5;exitY=1;exitDx=0;exitDy=0;entryX=0.5;entryY=0;entryDx=0;entryDy=0;" edge="1" parent="1" source="KkMUz14_b6mUWs1IsBhs-8" target="KkMUz14_b6mUWs1IsBhs-9">
          <mxGeometry relative="1" as="geometry" />
        </mxCell>
        <mxCell id="KkMUz14_b6mUWs1IsBhs-8" value="Deteccio bola" style="rounded=0;whiteSpace=wrap;html=1;" vertex="1" parent="1">
          <mxGeometry x="480" y="330" width="120" height="60" as="geometry" />
        </mxCell>
        <mxCell id="KkMUz14_b6mUWs1IsBhs-9" value="Desaparició bloc al contacte de la bola" style="rounded=0;whiteSpace=wrap;html=1;" vertex="1" parent="1">
          <mxGeometry x="480" y="450" width="120" height="60" as="geometry" />
        </mxCell>
        <mxCell id="KkMUz14_b6mUWs1IsBhs-24" style="edgeStyle=orthogonalEdgeStyle;rounded=0;orthogonalLoop=1;jettySize=auto;html=1;exitX=0.5;exitY=1;exitDx=0;exitDy=0;entryX=0.5;entryY=0;entryDx=0;entryDy=0;" edge="1" parent="1" source="KkMUz14_b6mUWs1IsBhs-10" target="KkMUz14_b6mUWs1IsBhs-11">
          <mxGeometry relative="1" as="geometry" />
        </mxCell>
        <mxCell id="KkMUz14_b6mUWs1IsBhs-10" value="Moviment i velocitat&lt;span style=&quot;color: rgba(0, 0, 0, 0); font-family: monospace; font-size: 0px; text-align: start; text-wrap-mode: nowrap;&quot;&gt;%3CmxGraphModel%3E%3Croot%3E%3CmxCell%20id%3D%220%22%2F%3E%3CmxCell%20id%3D%221%22%20parent%3D%220%22%2F%3E%3CmxCell%20id%3D%222%22%20value%3D%22Desaparici%C3%B3%20bloc%20al%20contacte%20de%20la%20bola%22%20style%3D%22rounded%3D0%3BwhiteSpace%3Dwrap%3Bhtml%3D1%3B%22%20vertex%3D%221%22%20parent%3D%221%22%3E%3CmxGeometry%20x%3D%22480%22%20y%3D%22450%22%20width%3D%22120%22%20height%3D%2260%22%20as%3D%22geometry%22%2F%3E%3C%2FmxCell%3E%3C%2Froot%3E%3C%2FmxGraphModel%3E&lt;/span&gt;" style="rounded=0;whiteSpace=wrap;html=1;" vertex="1" parent="1">
          <mxGeometry x="707" y="330" width="120" height="60" as="geometry" />
        </mxCell>
        <mxCell id="KkMUz14_b6mUWs1IsBhs-11" value="Deteccio de la bola" style="rounded=0;whiteSpace=wrap;html=1;" vertex="1" parent="1">
          <mxGeometry x="707" y="450" width="120" height="60" as="geometry" />
        </mxCell>
        <mxCell id="KkMUz14_b6mUWs1IsBhs-12" value="Tencar finestra amb alguna tecla" style="rounded=0;whiteSpace=wrap;html=1;" vertex="1" parent="1">
          <mxGeometry y="340" width="120" height="60" as="geometry" />
        </mxCell>
      </root>
    </mxGraphModel>
  </diagram>
</mxfile>
